<svg xmlns="http://www.w3.org/2000/svg" version="1.1" xmlns:xlink="http://www.w3.org/1999/xlink" xmlns:svgjs="http://svgjs.dev/svgjs" width="1500" height="1500" viewBox="0 0 1500 1500"><rect width="1500" height="1500" fill="#13472e"></rect><g transform="matrix(0.6666666666666666,0,0,0.6666666666666666,250.06490142532368,256.4)"><svg viewBox="0 0 250 247" data-background-color="#13472e" preserveAspectRatio="xMidYMid meet" height="1482" width="1500" xmlns="http://www.w3.org/2000/svg" xmlns:xlink="http://www.w3.org/1999/xlink"><g id="tight-bounds" transform="matrix(1,0,0,1,-0.016225356330920704,-0.09999999999999432)"><svg viewBox="0 0 250.03245071266184 247.2" height="247.2" width="250.03245071266184"><g><svg viewBox="0 0 395.52 391.03941796883214" height="247.2" width="250.03245071266184"><g transform="matrix(1,0,0,1,0,258.47293076722525)"><svg viewBox="0 0 395.52 132.5664872016069" height="132.5664872016069" width="395.52"><g id="textblocktransform"><svg viewBox="0 0 395.52 132.5664872016069" height="132.5664872016069" width="395.52" id="textblock"><g><svg viewBox="0 0 395.52 71.50002869440459" height="71.50002869440459" width="395.52"><g transform="matrix(1,0,0,1,0,0)"><svg width="395.52" viewBox="2 -37.55 209.08 37.8" height="71.50002869440459" data-palette-color="#92b19f"><path d="M12.55 0L2 0.05 2.05-0.65 4.65-1Q5.1-1.05 5.1-1.7L5.1-1.7 5.1-24.1 2.55-24.1 2.95-24.5 5.1-24.95 5.1-31.05Q5.1-34.5 7.35-36.02 9.6-37.55 12.6-37.55L12.6-37.55Q14.6-37.55 16-37L16-37 15.85-36.65Q14.65-36.8 13.78-36.8 12.9-36.8 12.08-36.55 11.25-36.3 10.35-35.65L10.35-35.65Q8.35-34.2 8.35-29.9L8.35-29.9 8.35-25 14.4-25 14.4-24.1 8.35-24.1 8.35-1 12.6-0.75Q12.6-0.7 12.55 0L12.55 0ZM34-1.9L34-1.9 33.85-1.9Q29.35 0.2 25.1 0.2L25.1 0.2Q18.45 0.2 18.05-5.05L18.05-5.05Q18-5.4 18-5.7L18-5.7Q18-9.55 23.05-10.85L23.05-10.85Q26.05-11.5 33.85-12.4L33.85-12.4 33.85-16.8Q33.85-18.9 33.35-20.4 32.85-21.9 32.25-22.63 31.65-23.35 30.7-23.75L30.7-23.75Q29.5-24.25 28.02-24.25 26.55-24.25 24.65-23.5L24.65-23.5Q21.9-22.35 19.75-20.6L19.75-20.6 19.55-16.7 18.6-16.45 18.6-22.5 19.1-22.7Q23-24.4 25.05-24.75 27.1-25.1 28.05-25.13 29-25.15 29.87-25.1 30.75-25.05 32.15-24.65 33.55-24.25 34.57-23.53 35.6-22.8 36.35-21.35 37.1-19.9 37.1-17.9L37.1-17.9 37.1-2.6Q37.1-1.05 37.9-1.05L37.9-1.05 40.95-0.9 40.9-0.15Q38.1 0.25 35.9 0.25L35.9 0.25Q35.3 0.2 34.65-0.38 34-0.95 34-1.9ZM26-0.6L26-0.6Q29.7-0.6 33.85-3.2L33.85-3.2 33.85-11.45Q26.35-11.2 24.42-10.58 22.5-9.95 21.77-8.63 21.05-7.3 21.05-6L21.05-6Q21.05-5.75 21.05-5.5L21.05-5.5Q21.2-2.9 22.6-1.75 24-0.6 26-0.6ZM49-22.95L49-22.95 49-18.95Q52.95-24.75 56.75-24.85L56.75-24.85Q57.05-24.85 57.35-24.85L57.35-24.85 60.15-24.5 58.85-21.5Q57.9-22.45 56.4-22.45L56.4-22.45Q52.75-22.4 49-17.6L49-17.6 49-1 53.25-0.75Q53.25-0.7 53.2 0L53.2 0 42.7 0.05Q42.7-0.4 42.75-0.65L42.75-0.65 45.35-1Q45.75-1.05 45.75-1.7L45.75-1.7 45.75-23.4Q45.65-23.75 45.45-23.75L45.45-23.75 42.45-23.85 42.5-24.55Q45.2-25 46.6-25 48-25 48.5-24.35 49-23.7 49-22.95ZM75.19-24.05L75.19-24.05Q72.19-24 68.69-21.85L68.69-21.85 68.69-1 72.44-0.75Q72.44-0.7 72.39 0L72.39 0 62.39 0.05Q62.39-0.4 62.44-0.65L62.44-0.65 65.04-1Q65.34-1 65.44-1.45L65.44-1.45 65.44-23.4Q65.34-23.75 65.14-23.75L65.14-23.75 62.14-23.85 62.19-24.55Q64.89-25 66.29-25 67.69-25 68.19-24.35 68.69-23.7 68.69-22.95L68.69-22.95 68.69-22.35Q72.84-24.95 76.29-25.15L76.29-25.15Q81.04-25.15 82.74-22.45L82.74-22.45Q87.09-24.95 90.94-25.15L90.94-25.15Q94.44-25.15 96.24-23.7L96.24-23.7Q97.09-23.05 97.72-21.68 98.34-20.3 98.34-18.4L98.34-18.4 98.34-1 102.09-0.75Q102.09-0.7 102.04 0L102.04 0 92.04 0.05Q92.04-0.4 92.09-0.65L92.09-0.65 94.69-1Q94.99-1 95.09-1.45L95.09-1.45 95.09-17.15Q95.09-19.15 94.59-20.58 94.09-22 93.49-22.65 92.89-23.3 91.99-23.65L91.99-23.65Q90.99-24.05 89.84-24.05L89.84-24.05Q86.74-24 83.09-21.7L83.09-21.7Q83.74-20.3 83.74-18.4L83.74-18.4 83.74-1 87.49-0.75Q87.49-0.7 87.44 0L87.44 0 77.39 0.05 77.44-0.65 80.04-1Q80.39-1.05 80.49-1.5L80.49-1.5 80.49-17.2Q80.49-19.65 79.84-21.23 79.19-22.8 78.09-23.3L78.09-23.3Q76.59-24.05 75.19-24.05ZM114.64 0L104.09 0.05 104.14-0.65 106.74-1Q107.19-1.05 107.19-1.7L107.19-1.7 107.19-24.1 104.64-24.1 105.04-24.5 107.19-24.95 107.19-31.05Q107.19-34.5 109.44-36.02 111.69-37.55 114.69-37.55L114.69-37.55Q116.69-37.55 118.09-37L118.09-37 117.94-36.65Q116.74-36.8 115.87-36.8 114.99-36.8 114.17-36.55 113.34-36.3 112.44-35.65L112.44-35.65Q110.44-34.2 110.44-29.9L110.44-29.9 110.44-25 116.49-25 116.49-24.1 110.44-24.1 110.44-1 114.69-0.75Q114.69-0.7 114.64 0L114.64 0ZM126.14-22.95L126.14-22.95 126.14-18.95Q130.09-24.75 133.89-24.85L133.89-24.85Q134.19-24.85 134.49-24.85L134.49-24.85 137.29-24.5 135.99-21.5Q135.04-22.45 133.54-22.45L133.54-22.45Q129.89-22.4 126.14-17.6L126.14-17.6 126.14-1 130.39-0.75Q130.39-0.7 130.34 0L130.34 0 119.84 0.05Q119.84-0.4 119.89-0.65L119.89-0.65 122.49-1Q122.89-1.05 122.89-1.7L122.89-1.7 122.89-23.4Q122.79-23.75 122.59-23.75L122.59-23.75 119.59-23.85 119.64-24.55Q122.34-25 123.74-25 125.14-25 125.64-24.35 126.14-23.7 126.14-22.95ZM142.09-11.5L142.09-11.5Q142.09-0.7 150.49-0.7L150.49-0.7Q152.69-0.7 155.19-1.18 157.69-1.65 158.39-2.05L158.39-2.05 158.74-1.55Q157.59-0.8 154.96-0.3 152.34 0.2 150.16 0.2 147.99 0.2 146.26-0.25 144.54-0.7 142.74-1.85 140.94-3 139.89-5.45 138.84-7.9 138.84-11.45L138.84-11.45Q138.84-18.05 142.24-21.55L142.24-21.55Q145.79-25.2 150.49-25.2 155.19-25.2 157.66-22.6 160.14-20 160.14-15.3L160.14-15.3Q160.14-14.3 159.99-13.15L159.99-13.15 142.14-13.15Q142.09-12.6 142.09-11.5ZM157.19-15.65L157.19-15.65Q157.19-19.4 155.54-21.78 153.89-24.15 151.04-24.15L151.04-24.15Q147.34-24.15 144.79-20.9L144.79-20.9Q142.74-18.35 142.24-14.1L142.24-14.1 157.14-14.1Q157.19-14.65 157.19-15.65ZM170.98-0.6L170.98-0.6Q171.28-0.6 171.58-0.65L171.58-0.65Q174.18-0.7 175.93-2.27 177.68-3.85 177.68-6.9L177.68-6.9Q177.68-9.9 172.98-11.25L172.98-11.25Q171.03-11.8 169.08-12.45 167.13-13.1 165.76-14.5 164.38-15.9 164.38-18.15L164.38-18.15Q164.38-21.35 166.83-23.28 169.28-25.2 173.03-25.2L173.03-25.2Q175.83-25.2 178.68-24.2L178.68-24.2 179.58-23.85 179.58-18.1 178.63-17.75 178.43-22Q175.53-24.3 173.58-24.3L173.58-24.3Q170.83-24.3 169.23-22.68 167.63-21.05 167.63-18.35L167.63-18.35Q167.63-16.8 169.01-15.85 170.38-14.9 172.33-14.35 174.28-13.8 176.23-13.13 178.18-12.45 179.56-10.93 180.93-9.4 180.93-6.95L180.93-6.95Q180.93-3.65 178.46-1.73 175.98 0.2 171.43 0.2 166.88 0.2 163.88-1.95L163.88-1.95 163.88-7.7 164.78-8.05 165.03-3.8Q165.73-2.5 167.56-1.55 169.38-0.6 170.98-0.6ZM191.23-35.45L191.23-35.45 191.23-21.9Q197.78-26.4 203.08-24.7L203.08-24.7Q204.28-24.35 205.16-23.68 206.03-23 206.68-21.65 207.33-20.3 207.33-18.4L207.33-18.4 207.33-1 211.08-0.75Q211.08-0.7 211.03 0L211.03 0 201.03 0.05Q201.03-0.4 201.08-0.65L201.08-0.65 203.68-1Q203.98-1 204.08-1.45L204.08-1.45 204.08-17.1Q204.08-19.05 203.56-20.48 203.03-21.9 202.33-22.55 201.63-23.2 200.68-23.55L200.68-23.55Q199.38-24.05 198.38-23.95L198.38-23.95Q195.13-23.85 191.23-21.3L191.23-21.3 191.23-1 194.98-0.75Q194.98-0.7 194.93 0L194.93 0 184.93 0.05Q184.93-0.4 184.98-0.65L184.98-0.65 187.58-1Q187.98-1.05 187.98-1.7L187.98-1.7 187.98-35.7Q187.98-36.25 187.68-36.25L187.68-36.25 184.68-36.35 184.73-37.05Q187.43-37.5 188.83-37.5 190.23-37.5 190.73-36.85 191.23-36.2 191.23-35.45Z" opacity="1" transform="matrix(1,0,0,1,0,0)" fill="#92b19f" class="wordmark-text-0" data-fill-palette-color="primary" id="text-0"></path></svg></g></svg></g><g transform="matrix(1,0,0,1,77.48383819363083,88.37946946846485)"><svg viewBox="0 0 240.55232361273832 44.187017733142035" height="44.187017733142035" width="240.55232361273832"><g transform="matrix(1,0,0,1,0,0)"><svg width="240.55232361273832" viewBox="3.78 -33.8 186.98 34.349999999999994" height="44.187017733142035" data-palette-color="#92b19f"><path d="M7.88-31.95L7.88 0 3.78 0 3.78-31.95 7.88-31.95ZM23.7-3.48L23.7 0 5 0 5-3.48 23.7-3.48ZM23.18-18.03L23.18-14.58 6.13-14.58 6.13-18.03 23.18-18.03ZM23.55-31.95L23.55-28.48 4.98-28.48 4.98-31.95 23.55-31.95ZM47.95-15.8L47.95 0 43.92 0 44.1-5.93 43.95-6.55 43.95-14.33 43.97-15.75Q43.97-18.73 42.46-20.15 40.95-21.58 37.67-21.58L37.67-21.58Q35.05-21.58 32.86-20.83 30.67-20.08 28.97-19.07L28.97-19.07 29.35-22.53Q30.3-23.1 31.61-23.66 32.92-24.23 34.61-24.6 36.3-24.98 38.32-24.98L38.32-24.98Q40.95-24.98 42.78-24.34 44.62-23.7 45.76-22.5 46.9-21.3 47.42-19.6 47.95-17.9 47.95-15.8L47.95-15.8ZM35.52 0.53L35.52 0.53Q31.9 0.53 29.96-1.24 28.02-3 28.02-6.28L28.02-6.28 28.02-7Q28.02-10.38 30.11-12.04 32.2-13.7 36.75-14.35L36.75-14.35 44.47-15.45 44.7-12.5 37.25-11.43Q34.45-11.03 33.25-10.06 32.05-9.1 32.05-7.23L32.05-7.23 32.05-6.83Q32.05-4.9 33.23-3.88 34.42-2.85 36.8-2.85L36.8-2.85Q38.9-2.85 40.4-3.58 41.9-4.3 42.82-5.53 43.75-6.75 44.07-8.25L44.07-8.25 44.7-5.5 43.92-5.5Q43.57-3.9 42.61-2.53 41.65-1.15 39.92-0.31 38.2 0.53 35.52 0.53ZM63.02 0.5L63.02 0.5Q60.2 0.5 58.47-0.35 56.75-1.2 55.97-2.93 55.2-4.65 55.2-7.23L55.2-7.23 55.2-22.63 59.2-22.63 59.2-7.7Q59.2-5.3 60.3-4.16 61.4-3.03 64-3.03L64-3.03Q65.47-3.03 66.83-3.35 68.2-3.68 69.4-4.28L69.4-4.28 69.02-0.8Q67.84-0.2 66.27 0.15 64.7 0.5 63.02 0.5ZM69.15-24.05L68.77-20.8 51.2-20.8 51.2-24.05 69.15-24.05ZM59.27-31.03L59.1-23.65 55.22-23.65 55.2-30.5 59.27-31.03ZM94.14-33.8L94.14-33.8Q96.02-33.8 97.5-33.46 98.99-33.13 100.24-32.63L100.24-32.63 100.64-29.45Q99.42-29.9 98.18-30.16 96.94-30.43 95.39-30.43L95.39-30.43Q93.52-30.43 92.38-29.94 91.24-29.45 90.75-28.56 90.27-27.68 90.27-26.43L90.27-26.43 90.27-26.3Q90.27-25.43 90.49-24.64 90.72-23.85 90.99-23.2L90.99-23.2 88.27-23.1 88.27-23.6Q87.49-24.2 86.9-25.28 86.32-26.35 86.32-27.78L86.32-27.78 86.32-27.9Q86.32-30.58 88.22-32.19 90.12-33.8 94.14-33.8ZM91.17-22.23L91.17 0 87.14 0 87.14-22.23 91.17-22.23ZM100.54-23.48L100.17-20.25 83.12-20.25 83.12-23.48 88.69-23.45 90.34-23.48 100.54-23.48ZM108.56-14.93L108.56-14.93 107.64-18.05 108.64-18.1Q109.44-21.2 111.39-22.99 113.34-24.78 116.56-24.78L116.56-24.78Q117.36-24.78 118-24.65 118.64-24.53 119.14-24.35L119.14-24.35 119.39-20.43Q118.76-20.63 118-20.75 117.24-20.88 116.31-20.88L116.31-20.88Q113.56-20.88 111.53-19.35 109.49-17.82 108.56-14.93ZM108.76-16.9L108.76 0 104.71 0 104.71-24.4 108.66-24.4 108.46-17.2 108.76-16.9ZM133.61 0.55L133.61 0.55Q128.04 0.55 125.21-2.18 122.39-4.9 122.39-9.98L122.39-9.98 122.39-14.33Q122.39-19.48 125.01-22.26 127.64-25.05 132.69-25.05L132.69-25.05Q136.09-25.05 138.36-23.79 140.64-22.53 141.79-20.2 142.94-17.88 142.94-14.65L142.94-14.65 142.94-13.75Q142.94-12.95 142.87-12.15 142.81-11.35 142.71-10.58L142.71-10.58 138.99-10.58Q139.04-11.78 139.05-12.85 139.06-13.93 139.06-14.83L139.06-14.83Q139.06-17.05 138.35-18.59 137.64-20.13 136.22-20.94 134.81-21.75 132.69-21.75L132.69-21.75Q129.54-21.75 127.96-19.93 126.39-18.1 126.39-14.7L126.39-14.7 126.39-12.38 126.41-11.88 126.41-9.55Q126.41-8.03 126.86-6.8 127.31-5.58 128.27-4.69 129.24-3.8 130.72-3.34 132.21-2.88 134.26-2.88L134.26-2.88Q136.64-2.88 138.69-3.5 140.74-4.13 142.54-5.2L142.54-5.2 142.16-1.7Q140.54-0.68 138.39-0.06 136.24 0.55 133.61 0.55ZM141.86-13.63L141.86-10.58 124.51-10.58 124.51-13.63 141.86-13.63ZM155.96 0.55L155.96 0.55Q153.01 0.55 150.81-0.09 148.61-0.73 147.16-1.48L147.16-1.48 146.78-5.23Q148.61-4.28 150.8-3.58 152.98-2.88 155.76-2.88L155.76-2.88Q158.58-2.88 160.01-3.78 161.43-4.67 161.43-6.45L161.43-6.45 161.43-6.73Q161.43-7.88 160.9-8.63 160.36-9.38 158.96-9.95 157.56-10.53 154.98-11.1L154.98-11.1Q151.91-11.78 150.13-12.69 148.36-13.6 147.6-14.95 146.83-16.3 146.83-18.25L146.83-18.25 146.83-18.48Q146.83-21.68 149.06-23.33 151.28-24.98 155.76-24.98L155.76-24.98Q158.63-24.98 160.75-24.33 162.86-23.68 164.21-22.88L164.21-22.88 164.58-19.45Q162.96-20.4 160.86-21.03 158.76-21.65 156.13-21.65L156.13-21.65Q154.23-21.65 153.06-21.26 151.88-20.88 151.36-20.16 150.83-19.45 150.83-18.45L150.83-18.45 150.83-18.25Q150.83-17.15 151.36-16.39 151.88-15.63 153.25-15.06 154.61-14.5 157.03-13.98L157.03-13.98Q160.16-13.35 162-12.48 163.83-11.6 164.63-10.26 165.43-8.93 165.43-6.83L165.43-6.83 165.43-6.4Q165.43-2.95 163.03-1.2 160.63 0.55 155.96 0.55ZM190.76-15.63L190.76 0 186.71 0 186.71-15.18Q186.71-17.15 186.17-18.57 185.63-20 184.42-20.79 183.21-21.58 181.11-21.58L181.11-21.58Q179.18-21.58 177.78-20.85 176.38-20.13 175.52-18.89 174.66-17.65 174.31-16.07L174.31-16.07 173.41-18.95 174.46-18.95Q174.83-20.6 175.83-21.96 176.83-23.33 178.52-24.14 180.21-24.95 182.63-24.95L182.63-24.95Q185.53-24.95 187.32-23.85 189.11-22.75 189.93-20.69 190.76-18.63 190.76-15.63L190.76-15.63ZM174.43-17.85L174.43 0 170.38 0 170.38-33.13 174.41-33.13 174.41-25.18 174.28-18.18 174.43-17.85Z" opacity="1" transform="matrix(1,0,0,1,0,0)" fill="#92b19f" class="slogan-text-1" data-fill-palette-color="secondary" id="text-1"></path></svg></g></svg></g></svg></g></svg></g><g transform="matrix(1,0,0,1,85.40297539044764,0)"><svg viewBox="0 0 224.7140492191047 224.7140492191047" height="224.7140492191047" width="224.7140492191047"><g><svg></svg></g><g id="icon-0"><svg viewBox="0 0 224.7140492191047 224.7140492191047" height="224.7140492191047" width="224.7140492191047"><g><path d="M0 112.357c0-62.053 50.304-112.357 112.357-112.357 62.053 0 112.357 50.304 112.357 112.357 0 62.053-50.304 112.357-112.357 112.357-62.053 0-112.357-50.304-112.357-112.357zM112.357 218.266c58.492 0 105.909-47.417 105.909-105.909 0-58.492-47.417-105.909-105.909-105.909-58.492 0-105.909 47.417-105.909 105.909 0 58.492 47.417 105.909 105.909 105.909z" data-fill-palette-color="accent" fill="#d09632" stroke="transparent"></path></g><g transform="matrix(1,0,0,1,49.7383880646086,70.58842359647231)"><svg viewBox="0 0 125.23727308988751 83.53720202616009" height="83.53720202616009" width="125.23727308988751"><g><svg xmlns="http://www.w3.org/2000/svg" xmlns:xlink="http://www.w3.org/1999/xlink" version="1.1" x="0" y="0" viewBox="10.752 24.096999999999994 77.668 51.807" enable-background="new 0 0 100 100" xml:space="preserve" height="83.53720202616009" width="125.23727308988751" class="icon-cg-0" data-fill-palette-color="accent" id="cg-0"><path d="M75.586 38.413l-1-0.806-2-1.612-1-0.806-2-1.612-1-0.807-2-1.612-1-0.806-2-1.612-1-0.806-2-1.612-0.278-0.225-2.481-2H41.347l-2.481 2-0.28 0.226-2 1.612-1 0.806-2 1.612-1 0.806-2 1.612-1 0.807-2 1.612-1 0.806-2 1.612-1 0.806L10.752 48.759l2.511 3.114 6.901-5.563v29.594h58.843V46.309l6.902 5.564 2.511-3.114L75.586 38.413zM51.586 28.096v6.257h-1v-6.257H51.586zM46.586 45.258v-0.082-0.75h5.999v0.75 0.082H46.586zM48.586 28.096v6.257h-1v-6.257H48.586zM64.988 71.865l-3.106-5.49 3.106-5.49V71.865zM61.021 64.852l-3.257-5.757h6.514L61.021 64.852zM43.119 73.631l-4.105-7.256 4.105-7.256V73.631zM56.053 59.118l4.106 7.257-4.106 7.257V59.118zM38.152 64.852l-3.257-5.757h6.514L38.152 64.852zM34.185 60.885l3.106 5.49-3.106 5.49V60.885zM34.471 74.404l3.681-6.506 3.681 6.506H34.471zM57.339 74.404l3.681-6.506 3.681 6.506H57.339zM77.507 74.404H66.988v-15.31h5.171v-3H27.012v3h5.173v15.31H21.664V54.481h1.922v-10.93l1-0.806v11.736h2V41.133l1-0.806v14.154h2V38.715l1-0.806v16.573h2V36.296l1-0.806v18.991h2V33.878l1-0.806v21.41h2V31.459l1-0.806v23.828h2v-25.44l1-0.806v26.247h2V28.096h1v26.386h2v-7.724h1v7.724h2v-7.724h1v7.724h2V28.096h1v26.386h2V28.233l1 0.806v25.442h2V30.652l1 0.806v23.023h2V33.071l1 0.806v20.604h2V35.489l1 0.806v18.186h2V37.908l1 0.806v15.768h2V40.327l1 0.806v13.349h2V42.745l1 0.806v10.93h1.921V74.404z" fill="#d09632" data-fill-palette-color="accent"></path></svg></g></svg></g></svg></g></svg></g><g></g></svg></g><defs></defs></svg><rect width="250.03245071266184" height="247.2" fill="none" stroke="none" visibility="hidden"></rect></g></svg></g></svg>